<?xml version="1.0" encoding="UTF-8"?>
<svg version="1.1" xmlns="http://www.w3.org/2000/svg" width="191" height="164">
<path d="M0 0 C0.6084375 0.56074219 1.216875 1.12148438 1.84375 1.69921875 C1.84375 2.35921875 1.84375 3.01921875 1.84375 3.69921875 C0.57917969 4.18841797 0.57917969 4.18841797 -0.7109375 4.6875 C-2.35449219 5.34298828 -2.35449219 5.34298828 -4.03125 6.01171875 C-5.12179688 6.44097656 -6.21234375 6.87023437 -7.3359375 7.3125 C-10.40496309 8.5285425 -10.40496309 8.5285425 -12.15625 11.69921875 C-12.32324232 14.82443708 -12.32324232 14.82443708 -12.15625 17.69921875 C-11.49625 17.69921875 -10.83625 17.69921875 -10.15625 17.69921875 C-8.46484375 19.2734375 -8.46484375 19.2734375 -6.59375 21.38671875 C-5.66369141 22.41345703 -5.66369141 22.41345703 -4.71484375 23.4609375 C-2.93617457 26.01526692 -2.46708473 27.61440651 -2.15625 30.69921875 C-3.00146484 32.82055664 -3.00146484 32.82055664 -4.3671875 34.921875 C-4.86637695 35.70264404 -5.36556641 36.48341309 -5.87988281 37.2878418 C-6.42483398 38.10422119 -6.96978516 38.92060059 -7.53125 39.76171875 C-8.07620117 40.60065674 -8.62115234 41.43959473 -9.18261719 42.30395508 C-13.56514441 48.98352663 -18.20250984 55.43198689 -23.15625 61.69921875 C-23.91550781 61.19390625 -24.67476563 60.68859375 -25.45703125 60.16796875 C-26.45089844 59.51828125 -27.44476563 58.86859375 -28.46875 58.19921875 C-29.45488281 57.54953125 -30.44101563 56.89984375 -31.45703125 56.23046875 C-34.07392639 54.45250605 -34.07392639 54.45250605 -37.15625 54.69921875 C-37.15625 54.03921875 -37.15625 53.37921875 -37.15625 52.69921875 C-37.83429688 52.60125 -38.51234375 52.50328125 -39.2109375 52.40234375 C-55.15428651 49.84080845 -55.15428651 49.84080845 -60.84375 43.88671875 C-62.53259273 39.78524354 -62.58504916 37.91041628 -61.15625 33.69921875 C-58.27292238 30.00391956 -54.91747304 27.50332156 -50.28125 26.57421875 C-45.37674095 26.2969658 -41.27320811 28.17214284 -37.15625 30.69921875 C-35.09375 32.76171875 -35.09375 32.76171875 -34.15625 34.69921875 C-34.15625 35.68921875 -34.15625 36.67921875 -34.15625 37.69921875 C-30.52625 37.69921875 -26.89625 37.69921875 -23.15625 37.69921875 C-25.34542915 31.01646136 -27.44247305 25.66221514 -33.890625 22.25390625 C-35.85531243 21.36318008 -37.83437528 20.50330871 -39.828125 19.6796875 C-42.15625 18.69921875 -42.15625 18.69921875 -43.15625 17.69921875 C-43.29740161 15.02863024 -43.19872107 12.37489637 -43.15625 9.69921875 C-45.4823357 9.31858654 -47.81680264 8.9865193 -50.15625 8.69921875 C-51.73897601 10.28194476 -51.50360747 12.07955878 -51.71875 14.26171875 C-51.84443359 15.50115234 -51.84443359 15.50115234 -51.97265625 16.765625 C-52.03324219 17.40371094 -52.09382813 18.04179688 -52.15625 18.69921875 C-52.79691406 18.91835938 -53.43757813 19.1375 -54.09765625 19.36328125 C-61.57831693 22.10581855 -66.91982667 25.06503084 -71.15625 31.94921875 C-72.79122757 38.08038464 -72.23852757 43.20527478 -69.71875 49.01171875 C-63.4544328 55.5816124 -54.66232405 57.64247697 -46.1340332 59.91235352 C-41.41884818 61.19190275 -36.92203097 62.45186115 -33.78125 66.44921875 C-32.79844908 69.98730206 -33.12162938 72.16933662 -34.15625 75.69921875 C-36.642422 79.00427827 -39.39987353 81.20913797 -43.41015625 82.328125 C-47.73321991 82.90599645 -51.97531152 83.02951736 -56.15625 81.69921875 C-58.77222877 79.49941842 -60.73201412 77.79617152 -61.9765625 74.578125 C-63.01598949 72.44366972 -63.01598949 72.44366972 -65.5390625 72.08984375 C-66.44398437 72.0434375 -67.34890625 71.99703125 -68.28125 71.94921875 C-69.64636719 71.86414063 -69.64636719 71.86414063 -71.0390625 71.77734375 C-71.73773438 71.7515625 -72.43640625 71.72578125 -73.15625 71.69921875 C-72.08071782 77.37020659 -70.82885888 81.93423894 -66.15625 85.69921875 C-63.89289869 86.90846093 -61.63301999 87.90962223 -59.2421875 88.83984375 C-57.15625 89.69921875 -57.15625 89.69921875 -54.15625 91.69921875 C-58.47985227 95.91987811 -62.94140764 98.82735548 -68.34375 101.51171875 C-68.94977051 101.81343994 -69.55579102 102.11516113 -70.18017578 102.42602539 C-77.80211343 106.11076836 -86.21648913 107.31561269 -94.5390625 105.05078125 C-103.72382999 100.83659381 -109.29403694 92.7592805 -113.15625 83.69921875 C-119.83741949 65.20706541 -119.55408119 43.71355768 -111.42578125 25.734375 C-107.48880099 17.61190078 -102.56039275 11.09165374 -96.15625 4.69921875 C-95.60582031 4.07789062 -95.05539063 3.4565625 -94.48828125 2.81640625 C-69.74914428 -24.42718656 -27.2328792 -20.38461105 0 0 Z " fill="#FB7805" transform="translate(141.15625,26.30078125)"/>
<path d="M0 0 C0.82857483 5.5741912 1.06401431 10.74989738 0.73046875 16.3671875 C0.66887321 17.50838547 0.66887321 17.50838547 0.60603333 18.67263794 C0.51792343 20.26438565 0.42614154 21.85593407 0.33081055 23.44726562 C0.18668514 25.88880396 0.06051296 28.33085191 -0.06445312 30.7734375 C-0.15257021 32.32558227 -0.24172538 33.87766854 -0.33203125 35.4296875 C-0.36859329 36.15985077 -0.40515533 36.89001404 -0.44282532 37.64230347 C-0.77052937 42.77052937 -0.77052937 42.77052937 -3 45 C-6.76127491 44.89834392 -7.98989184 44.00920966 -10.8125 41.4375 C-11.534375 40.633125 -12.25625 39.82875 -13 39 C-16.16555805 43.45484163 -19.31708714 47.91192366 -22.26953125 52.51171875 C-40.74711604 81.19770425 -69.25897393 110.20295389 -102.875 119.9375 C-113.79749262 122.27074275 -126.06351921 122.67360786 -136 117 C-144.2947649 111.25563695 -149.51325521 104.41119752 -151.515625 94.4296875 C-152.20352188 88.65497425 -152.11121065 82.80766742 -152 77 C-151.01 77 -150.02 77 -149 77 C-148.95875 78.2375 -148.9175 79.475 -148.875 80.75 C-147.94062639 89.18605891 -143.5664882 97.61211225 -137 103 C-136.175 103.721875 -135.35 104.44375 -134.5 105.1875 C-127.720225 110.10283687 -119.74132817 110.61825258 -111.625 109.375 C-95.60340125 105.94984809 -83.25076408 96.38693944 -71 86 C-70.34128906 85.46503906 -69.68257813 84.93007812 -69.00390625 84.37890625 C-64.47661383 80.65825836 -60.73210289 76.50815454 -57 72 C-56.57058105 71.49355957 -56.14116211 70.98711914 -55.69873047 70.46533203 C-47.86218643 61.20200395 -41.25362112 51.52551382 -35.17480469 41.02832031 C-34.11276469 39.19469016 -33.03168331 37.37395324 -31.9453125 35.5546875 C-29.03291291 31.06621451 -29.03291291 31.06621451 -28.0703125 25.9921875 C-29.80033974 22.28498628 -33.1651567 19.91315152 -36.1640625 17.21875 C-38 15 -38 15 -37.96484375 12.83984375 C-35.19806253 7.5639168 -26.49340353 6.06637714 -21.1875 4.375 C-7.04034989 0 -7.04034989 0 0 0 Z " fill="#FB7805" transform="translate(172,27)"/>
<path d="M0 0 C6.75 3.75 6.75 3.75 9 6 C11.28772474 22.04378388 4.36221095 39.09273565 -4.6484375 51.984375 C-17.39045276 68.32463378 -34.22773438 78.79520951 -54.99609375 81.7265625 C-60.34692458 82.21363423 -65.63493932 82.2081563 -71 82 C-72.43666016 81.95552734 -72.43666016 81.95552734 -73.90234375 81.91015625 C-80.42422926 81.51750235 -80.42422926 81.51750235 -83.27734375 78.953125 C-83.84582031 78.30859375 -84.41429688 77.6640625 -85 77 C-83.5459375 76.30777344 -83.5459375 76.30777344 -82.0625 75.6015625 C-67.56734354 68.59401866 -54.12852128 60.67385439 -42 50 C-41.17242187 49.28199219 -40.34484375 48.56398437 -39.4921875 47.82421875 C-23.36777631 33.59531044 -11.38336099 18.07054453 0 0 Z " fill="#FA7907" transform="translate(159,73)"/>
<path d="M0 0 C1.53445094 3.06890187 0.54984289 5.70094266 0 9 C-0.78375 9.226875 -1.5675 9.45375 -2.375 9.6875 C-5.17708333 10.76041667 -5.17708333 10.76041667 -6.1875 13.375 C-6.455625 14.24125 -6.72375 15.1075 -7 16 C-7.65213539 17.34050052 -8.31379969 18.67661368 -9 20 C-7.68 20 -6.36 20 -5 20 C-4.505 20.99 -4.505 20.99 -4 22 C-2.515 22.495 -2.515 22.495 -1 23 C-0.67 22.34 -0.34 21.68 0 21 C0.99 21 1.98 21 3 21 C3 20.01 3 19.02 3 18 C5 16.3125 5 16.3125 7 15 C7.99 15.495 7.99 15.495 9 16 C-10.75905278 39.88012151 -37.58405398 68.56705012 -70 73 C-82.32387895 73.98296143 -92.49499085 73.04491927 -102.375 64.9375 C-110.86450598 56.70443378 -112.85909024 47.5602678 -113.046875 36.15234375 C-113.06029654 33.76666507 -113.04567362 31.38517777 -113 29 C-112.01 29 -111.02 29 -110 29 C-109.95875 30.2375 -109.9175 31.475 -109.875 32.75 C-108.94062639 41.18605891 -104.5664882 49.61211225 -98 55 C-97.175 55.721875 -96.35 56.44375 -95.5 57.1875 C-88.720225 62.10283687 -80.74132817 62.61825258 -72.625 61.375 C-56.60340125 57.94984809 -44.25076408 48.38693944 -32 38 C-31.34128906 37.46503906 -30.68257813 36.93007812 -30.00390625 36.37890625 C-18.22205455 26.69627089 -7.98395971 12.92140848 0 0 Z " fill="#F87909" transform="translate(133,75)"/>
<path d="M0 0 C0.66 0.33 1.32 0.66 2 1 C2.0825 2.258125 2.165 3.51625 2.25 4.8125 C2.92959643 12.3972816 6.66973848 19.27188895 11.5625 25 C12.366875 25.66 13.17125 26.32 14 27 C15.2375 28.0828125 15.2375 28.0828125 16.5 29.1875 C23.279775 34.10283687 31.25867183 34.61825258 39.375 33.375 C49.28119145 31.27623062 57.88010168 26.96689498 66 21 C66.66 21.33 67.32 21.66 68 22 C66.71034824 23.37562854 65.37310707 24.70766393 64 26 C63.34 26 62.68 26 62 26 C61.67 27.32 61.34 28.64 61 30 C60.01 30 59.02 30 58 30 C57.34 32.31 56.68 34.62 56 37 C57.65 37 59.3 37 61 37 C61.33 36.01 61.66 35.02 62 34 C64.64 33.67 67.28 33.34 70 33 C57.21367645 43.13255829 41.96053814 46.39919091 26 45 C17.23394887 43.35017858 10.73148829 38.75386187 5 32 C0.78184863 25.34792681 -0.8414909 18.80352502 -1 11 C-1.02707031 10.071875 -1.05414062 9.14375 -1.08203125 8.1875 C-1.15832085 3.30496537 -1.15832085 3.30496537 -1 1 C-0.67 0.67 -0.34 0.34 0 0 Z " fill="#F67808" transform="translate(21,103)"/>
<path d="M0 0 C0.61875 0.165 1.2375 0.33 1.875 0.5 C4.16786836 1.23577017 4.16786836 1.23577017 7 0 C2.4527512 13.64174641 2.4527512 13.64174641 -6 18 C-8.68522709 18.7343889 -11.27257073 19.22051843 -14.03125 19.578125 C-14.6809375 19.71734375 -15.330625 19.8565625 -16 20 C-16.33 20.66 -16.66 21.32 -17 22 C-18.65 22 -20.3 22 -22 22 C-22.33 21.01 -22.66 20.02 -23 19 C-22.34 19 -21.68 19 -21 19 C-20.67 17.68 -20.34 16.36 -20 15 C-19.01 15 -18.02 15 -17 15 C-16.9175 14.38125 -16.835 13.7625 -16.75 13.125 C-16 11 -16 11 -14.1875 10.125 C-11.692508 9.08373274 -11.692508 9.08373274 -10.1875 6 C-7.45594843 2.25387213 -5.43953225 1.92141235 -1 1 C-0.67 0.67 -0.34 0.34 0 0 Z " fill="#F7790B" transform="translate(99,118)"/>
<path d="M0 0 C0.66 0.33 1.32 0.66 2 1 C2.0825 2.258125 2.165 3.51625 2.25 4.8125 C2.92959643 12.3972816 6.66973848 19.27188895 11.5625 25 C12.366875 25.66 13.17125 26.32 14 27 C15.2375 28.0828125 15.2375 28.0828125 16.5 29.1875 C21.11861395 32.53599511 25.37444223 33.33816967 31 34 C31 34.33 31 34.66 31 35 C24.79029227 35.33266291 20.71735105 34.45029331 15 32 C14.7834375 32.928125 14.7834375 32.928125 14.5625 33.875 C14 36 14 36 13 38 C14.98 37.505 14.98 37.505 17 37 C17 37.99 17 38.98 17 40 C19.97 40.66 22.94 41.32 26 42 C26 42.66 26 43.32 26 44 C17.35420682 42.83922221 12.27256873 39.34694529 6.25 33.1875 C-0.68184758 23.3673826 -1.81153982 12.81506507 -1 1 C-0.67 0.67 -0.34 0.34 0 0 Z " fill="#EB7D13" transform="translate(21,103)"/>
<path d="M0 0 C0 0.66 0 1.32 0 2 C-2.31 2 -4.62 2 -7 2 C-7.66 3.98 -8.32 5.96 -9 8 C-9.99 7.67 -10.98 7.34 -12 7 C-12.33 8.65 -12.66 10.3 -13 12 C-12.34 12.33 -11.68 12.66 -11 13 C-10.9175 13.78375 -10.835 14.5675 -10.75 15.375 C-10.2514518 18.24898017 -10.2514518 18.24898017 -7.4140625 19.55859375 C-3.81942804 21.0762369 -0.44889562 21.92993577 3.375 22.6875 C4.62023437 22.93886719 5.86546875 23.19023438 7.1484375 23.44921875 C8.08945313 23.63097656 9.03046875 23.81273438 10 24 C10 24.66 10 25.32 10 26 C10.763125 25.95875 11.52625 25.9175 12.3125 25.875 C15 26 15 26 18 28 C18 28.66 18 29.32 18 30 C19.98 30.33 21.96 30.66 24 31 C24 30.01 24 29.02 24 28 C24.66 28 25.32 28 26 28 C25.505 26.515 25.505 26.515 25 25 C25.66 25 26.32 25 27 25 C27 23.35 27 21.7 27 20 C30 20 30 20 33 21 C31.9218837 22.58689029 30.83726048 24.16936082 29.75 25.75 C29.14671875 26.63171875 28.5434375 27.5134375 27.921875 28.421875 C26.10858668 30.85433494 24.19950731 32.91728069 22 35 C21.48050781 34.57847656 20.96101563 34.15695313 20.42578125 33.72265625 C15.29853692 29.56571021 15.29853692 29.56571021 9 28 C9 27.34 9 26.68 9 26 C8.32195312 25.90203125 7.64390625 25.8040625 6.9453125 25.703125 C-8.99803651 23.1415897 -8.99803651 23.1415897 -14.6875 17.1875 C-16.37634273 13.08602479 -16.42879916 11.21119753 -15 7 C-10.56240969 1.84592376 -6.76956369 0 0 0 Z " fill="#D98431" transform="translate(95,53)"/>
<path d="M0 0 C6.75 3.75 6.75 3.75 9 6 C11.23774175 21.69325385 4.59584734 38.22902681 -4 51 C-5 48 -5 48 -4 45 C-3.34 45 -2.68 45 -2 45 C-2 43.68 -2 42.36 -2 41 C-1.34 41 -0.68 41 0 41 C0.144375 40.4225 0.28875 39.845 0.4375 39.25 C0.95833333 37.16666667 1.47916667 35.08333333 2 33 C2.66 33 3.32 33 4 33 C4 30.03 4 27.06 4 24 C4.66 24 5.32 24 6 24 C6.08071788 21.20775927 6.14035408 18.41783434 6.1875 15.625 C6.21263672 14.8309375 6.23777344 14.036875 6.26367188 13.21875 C6.29004405 11.14413852 6.15486462 9.06899135 6 7 C5.01 6.34 4.02 5.68 3 5 C2.34 4.34 1.68 3.68 1 3 C1 4.32 1 5.64 1 7 C1.99 7.33 2.98 7.66 4 8 C1.7448078 10.2551922 -0.0047587 10.97723468 -3 12 C-3.99 12 -4.98 12 -6 12 C-6.33 13.32 -6.66 14.64 -7 16 C-7.66 16 -8.32 16 -9 16 C-9.2475 16.763125 -9.495 17.52625 -9.75 18.3125 C-11.10995558 21.2364045 -12.31585826 22.30004356 -15 24 C-13.53213059 20.91561618 -11.82961936 18.09235903 -9.9609375 15.234375 C-9.38085938 14.34492187 -8.80078125 13.45546875 -8.203125 12.5390625 C-7.29820312 11.15847656 -7.29820312 11.15847656 -6.375 9.75 C-5.76398438 8.81414062 -5.15296875 7.87828125 -4.5234375 6.9140625 C-3.01752021 4.60812664 -1.50964628 2.30349559 0 0 Z " fill="#E58722" transform="translate(159,73)"/>
<path d="M0 0 C3.95371299 0.56481614 6.71675094 1.71996593 10 4 C10.33 4.66 10.66 5.32 11 6 C12.299375 5.855625 13.59875 5.71125 14.9375 5.5625 C15.66839844 5.48128906 16.39929688 5.40007812 17.15234375 5.31640625 C19.01140229 5.18113386 19.01140229 5.18113386 20 4 C22.33297433 3.95907063 24.66705225 3.95758277 27 4 C27.33 4.99 27.66 5.98 28 7 C27.071875 7.12375 27.071875 7.12375 26.125 7.25 C23.46510021 7.91214206 23.46510021 7.91214206 22 12 C18.37 12 14.74 12 11 12 C11 11.34 11 10.68 11 10 C9.906875 9.896875 8.81375 9.79375 7.6875 9.6875 C3.951119 8.99088659 3.33322353 8.68320706 1 6 C0.01 6 -0.98 6 -2 6 C-1.34 4.02 -0.68 2.04 0 0 Z " fill="#FA7804" transform="translate(36,135)"/>
<path d="M0 0 C2.25 0.25 2.25 0.25 4 1 C3.979375 1.763125 3.95875 2.52625 3.9375 3.3125 C3.87057159 6.10185786 3.87057159 6.10185786 5 9 C4.401875 8.814375 3.80375 8.62875 3.1875 8.4375 C0.83591238 7.77906313 0.83591238 7.77906313 -2 9 C-2.33 10.65 -2.66 12.3 -3 14 C-3.804375 14.12375 -4.60875 14.2475 -5.4375 14.375 C-6.283125 14.58125 -7.12875 14.7875 -8 15 C-8.33 15.66 -8.66 16.32 -9 17 C-10.65 17 -12.3 17 -14 17 C-14.33 16.01 -14.66 15.02 -15 14 C-14.34 14 -13.68 14 -13 14 C-12.67 12.68 -12.34 11.36 -12 10 C-11.01 10 -10.02 10 -9 10 C-8.9175 9.38125 -8.835 8.7625 -8.75 8.125 C-8 6 -8 6 -6.1875 5 C-5.1046875 4.505 -5.1046875 4.505 -4 4 C-3.34 3.278125 -2.68 2.55625 -2 1.8125 C-1.34 1.214375 -0.68 0.61625 0 0 Z " fill="#FC7704" transform="translate(91,123)"/>
<path d="M0 0 C3 2 3 2 4 5 C4.99 5 5.98 5 7 5 C7.33 5.99 7.66 6.98 8 8 C8.99 8.66 9.98 9.32 11 10 C10.67 10.66 10.34 11.32 10 12 C11.32 11.67 12.64 11.34 14 11 C14 11.99 14 12.98 14 14 C16.97 14.66 19.94 15.32 23 16 C23 16.66 23 17.32 23 18 C14.41714007 16.84767158 8.77565686 13.32481032 3.0625 6.875 C1.29093999 4.40555271 0.34255812 2.96883701 0 0 Z M10 2 C12.74043223 3.04781232 15.2929507 4.15921234 17.875 5.5625 C21.29312731 7.13483856 24.27341329 7.62734133 28 8 C28 8.33 28 8.66 28 9 C21.79029227 9.33266291 17.71735105 8.45029331 12 6 C11.67 6.99 11.34 7.98 11 9 C10.34 8.34 9.68 7.68 9 7 C9.375 4.375 9.375 4.375 10 2 Z " fill="#DD8229" transform="translate(24,129)"/>
<path d="M0 0 C4.29 1.65 8.58 3.3 13 5 C9.23625567 10.22067761 5.04677535 13.61217712 -1 16 C-1.66 15.67 -2.32 15.34 -3 15 C-1.68 14.34 -0.36 13.68 1 13 C1 12.34 1 11.68 1 11 C0.34 10.67 -0.32 10.34 -1 10 C-0.01 10 0.98 10 2 10 C2 9.01 2 8.02 2 7 C1.34 7 0.68 7 0 7 C1 4 1 4 2 3 C1.34 2.67 0.68 2.34 0 2 C0 1.34 0 0.68 0 0 Z " fill="#DC7D20" transform="translate(74,112)"/>
<path d="M0 0 C4.25177923 0.47241991 6.29969203 2.84964071 9 6 C9 6.99 9 7.98 9 9 C12.63 9 16.26 9 20 9 C19.34 6.36 18.68 3.72 18 1 C18.66 0.67 19.32 0.34 20 0 C21.17571451 3.67410785 21.07366746 7.16929183 21 11 C21.66 11 22.32 11 23 11 C23 12.32 23 13.64 23 15 C22.01 15 21.02 15 20 15 C20 14.01 20 13.02 20 12 C18.7315625 12.3403125 18.7315625 12.3403125 17.4375 12.6875 C13.0288424 13.08828705 10.80539868 12.22579923 7 10 C5.0625 6.8125 5.0625 6.8125 4 4 C3.01 4.33 2.02 4.66 1 5 C0.67 3.35 0.34 1.7 0 0 Z " fill="#E97814" transform="translate(98,55)"/>
<path d="M0 0 C0.82857483 5.5741912 1.06401431 10.74989738 0.73046875 16.3671875 C0.66887321 17.50838547 0.66887321 17.50838547 0.60603333 18.67263794 C0.51792343 20.26438565 0.42614154 21.85593407 0.33081055 23.44726562 C0.18668514 25.88880396 0.06051296 28.33085191 -0.06445312 30.7734375 C-0.15257021 32.32558227 -0.24172538 33.87766854 -0.33203125 35.4296875 C-0.36859329 36.15985077 -0.40515533 36.89001404 -0.44282532 37.64230347 C-0.77052937 42.77052937 -0.77052937 42.77052937 -3 45 C-5.4375 44.875 -5.4375 44.875 -8 44 C-9.8125 41.9375 -9.8125 41.9375 -11 40 C-10.4225 40.309375 -9.845 40.61875 -9.25 40.9375 C-7.15095893 41.92871384 -5.24925862 42.47548801 -3 43 C-3.01160156 41.78441406 -3.02320313 40.56882813 -3.03515625 39.31640625 C-3.04453278 37.73177236 -3.05363313 36.14713682 -3.0625 34.5625 C-3.07087891 33.76005859 -3.07925781 32.95761719 -3.08789062 32.13085938 C-3.0965143 30.08704779 -3.0522815 28.04316098 -3 26 C-2.67 25.67 -2.34 25.34 -2 25 C-1.84259395 23.29436222 -1.74906608 21.58272756 -1.68359375 19.87109375 C-1.64169922 18.83662109 -1.59980469 17.80214844 -1.55664062 16.73632812 C-1.51732422 15.64771484 -1.47800781 14.55910156 -1.4375 13.4375 C-1.39431641 12.34501953 -1.35113281 11.25253906 -1.30664062 10.12695312 C-1.20017932 7.41810436 -1.09816484 4.70916008 -1 2 C-3.31 2 -5.62 2 -8 2 C-8 1.67 -8 1.34 -8 1 C-2.25 0 -2.25 0 0 0 Z " fill="#DB8833" transform="translate(172,27)"/>
<path d="M0 0 C1.53445094 3.06890187 0.54984289 5.70094266 0 9 C-0.78375 9.226875 -1.5675 9.45375 -2.375 9.6875 C-5.18259346 10.72405955 -5.18259346 10.72405955 -5.875 13.25 C-7.29175076 16.71316853 -9.24804063 18.0683912 -12.11328125 20.375 C-15.09630405 22.94422875 -17.5320267 25.944414 -20 29 C-20.66 28.67 -21.32 28.34 -22 28 C-21.41734375 27.40316406 -20.8346875 26.80632812 -20.234375 26.19140625 C-12.57122393 18.08244293 -6.26787767 9.21355296 0 0 Z " fill="#DD822D" transform="translate(133,75)"/>
<path d="M0 0 C0 0.66 0 1.32 0 2 C-2.31 2 -4.62 2 -7 2 C-7.66 3.98 -8.32 5.96 -9 8 C-9.99 7.67 -10.98 7.34 -12 7 C-12.33 8.65 -12.66 10.3 -13 12 C-12.34 12.33 -11.68 12.66 -11 13 C-10.375 16.0625 -10.375 16.0625 -10 19 C-11.875 18.8125 -11.875 18.8125 -14 18 C-16.02983896 14.86297615 -16.03037175 13.21260226 -15.5 9.5 C-13.60005015 5.06678369 -11.96102392 3.69349627 -8 1 C-5.06943862 -0.12050876 -3.26316581 0 0 0 Z " fill="#E2882F" transform="translate(95,53)"/>
<path d="M0 0 C0.66 0.33 1.32 0.66 2 1 C0.71034824 2.37562854 -0.62689293 3.70766393 -2 5 C-2.66 5 -3.32 5 -4 5 C-4.33 5.99 -4.66 6.98 -5 8 C-6.98 8.33 -8.96 8.66 -11 9 C-11.33 9.99 -11.66 10.98 -12 12 C-13.98567708 12.22786458 -15.97135417 12.45572917 -17.95703125 12.68359375 C-20.19396393 12.97170735 -20.19396393 12.97170735 -23 14 C-24.39439664 14.06665376 -25.79169875 14.08538199 -27.1875 14.0625 C-29.0746875 14.0315625 -29.0746875 14.0315625 -31 14 C-31 13.67 -31 13.34 -31 13 C-30.41734375 12.91363281 -29.8346875 12.82726562 -29.234375 12.73828125 C-18.29054252 10.86268732 -8.92234587 6.55657234 0 0 Z " fill="#DF8629" transform="translate(87,124)"/>
<path d="M0 0 C0.66 0.33 1.32 0.66 2 1 C2.34375 2.8203125 2.34375 2.8203125 2.5 5.125 C2.86931741 9.3217887 3.72091109 12.99218807 5 17 C4.01 16.67 3.02 16.34 2 16 C2.33 19.3 2.66 22.6 3 26 C-1.66170076 21.33829924 -1.18015697 14.26809425 -1.1875 8.0625 C-1.15346535 1.15346535 -1.15346535 1.15346535 0 0 Z " fill="#D98228" transform="translate(21,103)"/>
<path d="M0 0 C-0.7425 0.66 -1.485 1.32 -2.25 2 C-7.00953254 6.84089207 -9.24035174 11.6786833 -9.25 18.5 C-9.1867057 20.00097911 -9.11052603 21.50175822 -9 23 C-9.66 23 -10.32 23 -11 23 C-11.19430855 20.3753399 -11.38073238 17.75053235 -11.5625 15.125 C-11.61857422 14.37863281 -11.67464844 13.63226563 -11.73242188 12.86328125 C-12.11328125 7.2265625 -12.11328125 7.2265625 -11 5 C-9.68 5 -8.36 5 -7 5 C-7.33 3.68 -7.66 2.36 -8 1 C-5.07175348 0.02391783 -3.04386724 -0.08226668 0 0 Z " fill="#DC7C20" transform="translate(78,49)"/>
<path d="M0 0 C0 0.66 0 1.32 0 2 C-0.66 2 -1.32 2 -2 2 C-2.33 2.99 -2.66 3.98 -3 5 C-3.99 4.67 -4.98 4.34 -6 4 C-6.1546875 4.9590625 -6.1546875 4.9590625 -6.3125 5.9375 C-6.539375 6.618125 -6.76625 7.29875 -7 8 C-10.13349732 9.04449911 -10.98968256 8.93423645 -14 8 C-14 9.65 -14 11.3 -14 13 C-18.875 11.25 -18.875 11.25 -20 9 C-2 0 -2 0 0 0 Z " fill="#EA801A" transform="translate(94,141)"/>
<path d="M0 0 C1.37478516 0.01740234 1.37478516 0.01740234 2.77734375 0.03515625 C3.69644531 0.04417969 4.61554688 0.05320313 5.5625 0.0625 C6.27277344 0.07410156 6.98304687 0.08570313 7.71484375 0.09765625 C7.71484375 0.75765625 7.71484375 1.41765625 7.71484375 2.09765625 C6.58046875 2.07703125 5.44609375 2.05640625 4.27734375 2.03515625 C0.89908701 1.68188148 0.89908701 1.68188148 -0.28515625 3.09765625 C-0.5170849 4.61235073 -0.69730863 6.13520187 -0.84765625 7.66015625 C-0.99203125 9.12453125 -1.13640625 10.58890625 -1.28515625 12.09765625 C-4.91515625 13.41765625 -8.54515625 14.73765625 -12.28515625 16.09765625 C-12.28515625 15.43765625 -12.28515625 14.77765625 -12.28515625 14.09765625 C-6.53515625 11.09765625 -6.53515625 11.09765625 -4.28515625 11.09765625 C-4.22457031 10.38738281 -4.16398437 9.67710938 -4.1015625 8.9453125 C-4.01777344 8.02621094 -3.93398437 7.10710938 -3.84765625 6.16015625 C-3.76644531 5.24363281 -3.68523437 4.32710937 -3.6015625 3.3828125 C-3.17883984 0.32981552 -3.0932479 0.13219008 0 0 Z " fill="#D17F29" transform="translate(90.28515625,32.90234375)"/>
<path d="M0 0 C5.875 1.875 5.875 1.875 7 3 C7.3125 5.8125 7.3125 5.8125 7 9 C5.3125 11.0625 5.3125 11.0625 3 13 C2.0925 13.9075 1.185 14.815 0.25 15.75 C-0.86375 16.86375 -0.86375 16.86375 -2 18 C-0.9214967 15.17929907 0.2266337 12.5887018 1.6875 9.9375 C3.19506821 7.2001834 3.19506821 7.2001834 2.8125 4.8125 C1.93781974 2.72709777 1.93781974 2.72709777 0 0 Z " fill="#D67F2E" transform="translate(141,48)"/>
<path d="M0 0 C-2.60060504 1.34070318 -5.20504916 2.67273354 -7.8125 4 C-8.55048828 4.3815625 -9.28847656 4.763125 -10.04882812 5.15625 C-10.76103516 5.5171875 -11.47324219 5.878125 -12.20703125 6.25 C-13.18893433 6.75273437 -13.18893433 6.75273437 -14.19067383 7.265625 C-16 8 -16 8 -19 8 C-19 7.34 -19 6.68 -19 6 C-18.01 6 -17.02 6 -16 6 C-15.67 4.35 -15.34 2.7 -15 1 C-14.67 1.66 -14.34 2.32 -14 3 C-12.35 3 -10.7 3 -9 3 C-8.67 2.01 -8.34 1.02 -8 0 C-4.71303767 -0.79953138 -3.28976808 -1.09658936 0 0 Z " fill="#E88323" transform="translate(91,137)"/>
<path d="M0 0 C1.67542976 0.28604898 3.34385343 0.61781233 5 1 C4.01 1.495 4.01 1.495 3 2 C3.33 2.5775 3.66 3.155 4 3.75 C5 6 5 6 5 10 C0.125 9.125 0.125 9.125 -1 8 C-1.125 4.5 -1.125 4.5 -1 1 C-0.67 0.67 -0.34 0.34 0 0 Z " fill="#F87808" transform="translate(99,36)"/>
<path d="M0 0 C2.71121495 0.85617314 4.55388461 1.45249475 6.375 3.6875 C7.31263269 7.15674096 6.91168904 9.53558163 6 13 C3.5625 15.9375 3.5625 15.9375 1 18 C0.34 18 -0.32 18 -1 18 C0 15 0 15 2.0625 13.75 C4.4276976 12.02124847 4.4276976 12.02124847 4.25 8.3125 C4.12625 6.6728125 4.12625 6.6728125 4 5 C2.35 4.67 0.7 4.34 -1 4 C-0.67 2.68 -0.34 1.36 0 0 Z " fill="#DF822E" transform="translate(101,89)"/>
<path d="M0 0 C-11.34430048 8.18314165 -11.34430048 8.18314165 -16 10 C-16.99 9.67 -17.98 9.34 -19 9 C-18.67 8.01 -18.34 7.02 -18 6 C-16.88625 5.896875 -15.7725 5.79375 -14.625 5.6875 C-13.42875 5.460625 -12.2325 5.23375 -11 5 C-10.34 4.01 -9.68 3.02 -9 2 C-8.01 2 -7.02 2 -6 2 C-6 1.34 -6 0.68 -6 0 C-2.25 -1.125 -2.25 -1.125 0 0 Z " fill="#DF8328" transform="translate(141,139)"/>
<path d="M0 0 C-0.33 0.66 -0.66 1.32 -1 2 C-2.11375 1.979375 -3.2275 1.95875 -4.375 1.9375 C-7.83215921 1.73619282 -7.83215921 1.73619282 -10 3 C-11.72492753 3.2059615 -13.45547891 3.3662163 -15.1875 3.5 C-19.49304791 3.85690726 -23.73199961 4.33608883 -28 5 C-20.14092205 -0.2393853 -9.19874027 -0.50686936 0 0 Z " fill="#D98B34" transform="translate(98,10)"/>
<path d="M0 0 C0.33 0.66 0.66 1.32 1 2 C4.96 2 8.92 2 13 2 C7.12116955 4.93941522 2.18486901 5.13798329 -4.3125 5.0625 C-5.05306641 5.05798828 -5.79363281 5.05347656 -6.55664062 5.04882812 C-8.37112899 5.03712175 -10.18557534 5.01918898 -12 5 C-12 4.67 -12 4.34 -12 4 C-8.37 4 -4.74 4 -1 4 C-0.67 2.68 -0.34 1.36 0 0 Z " fill="#E2882B" transform="translate(59,143)"/>
<path d="M0 0 C2.94956528 1.36944102 5.52468811 2.87830409 8 5 C8 5.66 8 6.32 8 7 C6.73542969 7.52400391 6.73542969 7.52400391 5.4453125 8.05859375 C4.34960938 8.51363281 3.25390625 8.96867187 2.125 9.4375 C0.48917969 10.11619141 0.48917969 10.11619141 -1.1796875 10.80859375 C-2.80558624 11.49543463 -4.42131774 12.21065887 -6 13 C-6 12.01 -6 11.02 -6 10 C-2.91190305 8.23537317 -1.76687864 8 2 8 C2 7.34 2 6.68 2 6 C2.99 6 3.98 6 5 6 C5 5.34 5 4.68 5 4 C4.01 4 3.02 4 2 4 C1.34 2.68 0.68 1.36 0 0 Z " fill="#D7862F" transform="translate(135,23)"/>
<path d="M0 0 C0.7425 1.0828125 0.7425 1.0828125 1.5 2.1875 C6.3321384 7.6236557 11.98592469 10.39260774 19 12 C19 12.33 19 12.66 19 13 C12.77850011 12.56340352 9.30004799 11.2215978 4 8 C3.01 8 2.02 8 1 8 C0.67 5.36 0.34 2.72 0 0 Z " fill="#D27D30" transform="translate(69,72)"/>
<path d="M0 0 C2.97 0 5.94 0 9 0 C8.67 1.32 8.34 2.64 8 4 C3.545 4.495 3.545 4.495 -1 5 C-0.67 3.35 -0.34 1.7 0 0 Z " fill="#F07F1B" transform="translate(92,104)"/>
<path d="M0 0 C0.99 0.33 1.98 0.66 3 1 C-2.29230769 5.06153846 -2.29230769 5.06153846 -5.875 4.75 C-6.57625 4.5025 -7.2775 4.255 -8 4 C-7.625 2.0625 -7.625 2.0625 -7 0 C-4.30224476 -1.34887762 -2.88231982 -0.70300484 0 0 Z " fill="#EC7E18" transform="translate(96,131)"/>
<path d="M0 0 C1.32 0.66 2.64 1.32 4 2 C3.979375 2.78375 3.95875 3.5675 3.9375 4.375 C3.81315937 6.98114961 3.81315937 6.98114961 5 9 C3.0625 8.625 3.0625 8.625 1 8 C0.67 7.34 0.34 6.68 0 6 C-0.66 6 -1.32 6 -2 6 C-2 4.68 -2 3.36 -2 2 C-1.34 2 -0.68 2 0 2 C0 1.34 0 0.68 0 0 Z " fill="#FC7805" transform="translate(30,129)"/>
<path d="M0 0 C0.33 1.32 0.66 2.64 1 4 C0.01 4.33 -0.98 4.66 -2 5 C-2 5.66 -2 6.32 -2 7 C-3.75 8.6875 -3.75 8.6875 -6 10 C-7.32 9.67 -8.64 9.34 -10 9 C-6.7 6.03 -3.4 3.06 0 0 Z " fill="#E28025" transform="translate(103,111)"/>
<path d="M0 0 C0.66 0 1.32 0 2 0 C2 0.66 2 1.32 2 2 C2.99 1.67 3.98 1.34 5 1 C5.226875 2.03125 5.45375 3.0625 5.6875 4.125 C6.86471856 8.34408258 9.04838971 10.81536784 12 14 C8.66950878 12.57369692 6.68261063 10.84985604 4.3125 8.125 C3.71050781 7.44695312 3.10851563 6.76890625 2.48828125 6.0703125 C0.99233806 3.98934166 0.4210244 2.50369174 0 0 Z " fill="#DF852D" transform="translate(31,114)"/>
<path d="M0 0 C0.33 0.66 0.66 1.32 1 2 C-0.89467269 7.12676141 -3.31614016 9.29376987 -8 12 C-8.66 11.67 -9.32 11.34 -10 11 C-6.7 7.37 -3.4 3.74 0 0 Z " fill="#DB8127" transform="translate(143,97)"/>
<path d="M0 0 C0.66 0.33 1.32 0.66 2 1 C1.75 2.875 1.75 2.875 1 5 C-1.0625 6.25 -1.0625 6.25 -3 7 C-4.65 5.02 -6.3 3.04 -8 1 C-6.576875 1.309375 -6.576875 1.309375 -5.125 1.625 C-4.09375 1.74875 -3.0625 1.8725 -2 2 C-1.34 1.34 -0.68 0.68 0 0 Z " fill="#E97A17" transform="translate(118,48)"/>
<path d="M0 0 C1.67542976 0.28604898 3.34385343 0.61781233 5 1 C1.375 7.875 1.375 7.875 -2 9 C-2.33 8.01 -2.66 7.02 -3 6 C-2.34 6 -1.68 6 -1 6 C-1.0309375 4.7934375 -1.0309375 4.7934375 -1.0625 3.5625 C-1 1 -1 1 0 0 Z " fill="#E87F19" transform="translate(123,72)"/>
<path d="M0 0 C0.33 0.99 0.66 1.98 1 3 C0.67 3.66 0.34 4.32 0 5 C0.66 5.33 1.32 5.66 2 6 C2.625 9.0625 2.625 9.0625 3 12 C1.125 11.8125 1.125 11.8125 -1 11 C-2.25 8.4375 -2.25 8.4375 -3 6 C-2.34 6 -1.68 6 -1 6 C-1.0309375 4.7934375 -1.0309375 4.7934375 -1.0625 3.5625 C-1 1 -1 1 0 0 Z " fill="#E78117" transform="translate(82,60)"/>
<path d="M0 0 C0.66 0.33 1.32 0.66 2 1 C1.01 2.485 1.01 2.485 0 4 C1.32 4 2.64 4 4 4 C4.33 6.31 4.66 8.62 5 11 C2.69 9.02 0.38 7.04 -2 5 C-1 1 -1 1 0 0 Z " fill="#D0812B" transform="translate(136,37)"/>
<path d="M0 0 C1.65 0 3.3 0 5 0 C1.88983545 3.28788824 -1.01618925 5.83735988 -5 8 C-4.34 6.02 -3.68 4.04 -3 2 C-2.01 2 -1.02 2 0 2 C0 1.34 0 0.68 0 0 Z " fill="#E38128" transform="translate(107,121)"/>
<path d="M0 0 C1.32 0.66 2.64 1.32 4 2 C3.67 4.64 3.34 7.28 3 10 C1.02 10.66 -0.96 11.32 -3 12 C-2.34 11.01 -1.68 10.02 -1 9 C-0.34 9 0.32 9 1 9 C1 8.34 1 7.68 1 7 C0.34 6.67 -0.32 6.34 -1 6 C-0.01 6 0.98 6 2 6 C2 5.01 2 4.02 2 3 C1.34 3 0.68 3 0 3 C0 2.01 0 1.02 0 0 Z " fill="#EE7D16" transform="translate(74,116)"/>
<path d="M0 0 C0.99 0 1.98 0 3 0 C3.28875 1.2375 3.5775 2.475 3.875 3.75 C4.61334794 6.72448742 5.44474933 9.333856 7 12 C6.01 12 5.02 12 4 12 C1.03176403 8.23262357 0.46101836 4.70238725 0 0 Z " fill="#DE7C21" transform="translate(65,98)"/>
<path d="M0 0 C7.71428571 4 7.71428571 4 9 8 C7.02 7.34 5.04 6.68 3 6 C3 5.34 3 4.68 3 4 C2.34 3.67 1.68 3.34 1 3 C1 3.66 1 4.32 1 5 C0.01 5 -0.98 5 -2 5 C-1.34 3.35 -0.68 1.7 0 0 Z " fill="#DA8233" transform="translate(159,73)"/>
<path d="M0 0 C4.25177923 0.47241991 6.29969203 2.84964071 9 6 C9 6.99 9 7.98 9 9 C8.34 9 7.68 9 7 9 C5.61767557 7.37373596 4.28062485 5.7074998 3 4 C2.01 4.495 2.01 4.495 1 5 C0.67 3.35 0.34 1.7 0 0 Z " fill="#DA812A" transform="translate(98,55)"/>
<path d="M0 0 C0 0.66 0 1.32 0 2 C-5.24385089 3.7479503 -9.47322267 4.19392201 -15 4 C-10.34714182 0.89809455 -5.58467324 -0.33846504 0 0 Z " fill="#DF8630" transform="translate(164,29)"/>
<path d="M0 0 C-3.96 3.465 -3.96 3.465 -8 7 C-8.33 6.34 -8.66 5.68 -9 5 C-8.34 5 -7.68 5 -7 5 C-7 3.35 -7 1.7 -7 0 C-4 -1 -4 -1 0 0 Z " fill="#E58122" transform="translate(121,114)"/>
<path d="M0 0 C0 3 0 3 -2.5 5.6875 C-3.325 6.450625 -4.15 7.21375 -5 8 C-6.32 6.35 -7.64 4.7 -9 3 C-6.03 3.495 -6.03 3.495 -3 4 C-3 3.01 -3 2.02 -3 1 C-2.01 0.67 -1.02 0.34 0 0 Z " fill="#DF8830" transform="translate(122,80)"/>
<path d="M0 0 C2.1796875 0.26953125 2.1796875 0.26953125 4.875 0.8125 C5.75929688 0.98394531 6.64359375 1.15539062 7.5546875 1.33203125 C10 2 10 2 13 4 C11.04098546 3.88617347 9.0827662 3.75858875 7.125 3.625 C6.03445312 3.55539063 4.94390625 3.48578125 3.8203125 3.4140625 C1 3 1 3 -1 1 C-0.67 0.67 -0.34 0.34 0 0 Z " fill="#E28027" transform="translate(88,85)"/>
<path d="M0 0 C0.66 0.33 1.32 0.66 2 1 C0.69118353 2.66956087 -0.62214826 4.33558304 -1.9375 6 C-2.66839844 6.928125 -3.39929688 7.85625 -4.15234375 8.8125 C-4.76207031 9.534375 -5.37179688 10.25625 -6 11 C-6.33 11 -6.66 11 -7 11 C-7 9.35 -7 7.7 -7 6 C-6.01 6 -5.02 6 -4 6 C-4 5.01 -4 4.02 -4 3 C-2 1.3125 -2 1.3125 0 0 Z " fill="#DC842F" transform="translate(140,90)"/>
<path d="M0 0 C3 1 3 1 4 3 C4.13415472 5.6723621 4.04318541 8.32250488 4 11 C0.85041169 7.57653445 0.43820891 4.55737263 0 0 Z " fill="#E2801F" transform="translate(27,103)"/>
<path d="M0 0 C0.33 1.32 0.66 2.64 1 4 C0.01 4.33 -0.98 4.66 -2 5 C-2.309375 5.78375 -2.61875 6.5675 -2.9375 7.375 C-4.14208614 10.35103635 -5.33158609 11.31000453 -8 13 C-6.53181332 9.89257577 -4.79975 7.09528261 -2.875 4.25 C-2.33617187 3.45078125 -1.79734375 2.6515625 -1.2421875 1.828125 C-0.62730469 0.92320313 -0.62730469 0.92320313 0 0 Z " fill="#D48234" transform="translate(152,84)"/>
<path d="M0 0 C4.34271252 0.48252361 6.1398221 1.7453148 9 5 C9.66 5.66 10.32 6.32 11 7 C6.4923533 6.46968862 3.58045212 4.74778884 0 2 C0 1.34 0 0.68 0 0 Z " fill="#ED7F13" transform="translate(158,63)"/>
<path d="M0 0 C5.875 1.875 5.875 1.875 7 3 C7.04080783 4.99958364 7.04254356 7.00045254 7 9 C6.01 9.33 5.02 9.66 4 10 C4 9.34 4 8.68 4 8 C4.66 8 5.32 8 6 8 C5.80528889 6.05000871 5.80528889 6.05000871 5 4 C3.03327085 2.8499169 3.03327085 2.8499169 1 2 C0.67 1.34 0.34 0.68 0 0 Z " fill="#E1791A" transform="translate(141,48)"/>
<path d="M0 0 C1.76462683 3.08809695 2 4.23312136 2 8 C2.99 8.66 3.98 9.32 5 10 C0.125 9.125 0.125 9.125 -1 8 C-1.125 4.5 -1.125 4.5 -1 1 C-0.67 0.67 -0.34 0.34 0 0 Z " fill="#D3812C" transform="translate(99,36)"/>
<path d="M0 0 C1.43836751 0.11458693 2.87570966 0.24209116 4.3125 0.375 C5.51326172 0.47941406 5.51326172 0.47941406 6.73828125 0.5859375 C9 1 9 1 12 3 C11.67 3.99 11.34 4.98 11 6 C10.236875 5.505 9.47375 5.01 8.6875 4.5 C6.07636249 2.75631692 6.07636249 2.75631692 3 3 C3 2.34 3 1.68 3 1 C2.01 0.67 1.02 0.34 0 0 Z " fill="#C57C2F" transform="translate(101,78)"/>
<path d="M0 0 C-2.71182212 2.60334924 -3.89133813 2.99456691 -7.75 3.1875 C-8.8225 3.125625 -9.895 3.06375 -11 3 C-7.74003139 -0.25996861 -4.40088745 -1.46696248 0 0 Z " fill="#DC8328" transform="translate(149,34)"/>
<path d="M0 0 C0 3.57575896 -1.08840607 5.05295935 -3 8 C-4.32 7.67 -5.64 7.34 -7 7 C-4.69 4.69 -2.38 2.38 0 0 Z " fill="#DD8128" transform="translate(132,109)"/>
<path d="M0 0 C2.64 0 5.28 0 8 0 C8 0.66 8 1.32 8 2 C7.01 2 6.02 2 5 2 C5 2.66 5 3.32 5 4 C5.66 4.33 6.32 4.66 7 5 C3.74572241 4.43891766 2.12035493 3.54442592 0 1 C0 0.67 0 0.34 0 0 Z " fill="#F47B0A" transform="translate(82,102)"/>
<path d="M0 0 C0.33 0.66 0.66 1.32 1 2 C0.0625 4.625 0.0625 4.625 -1 7 C-2.65 7 -4.3 7 -6 7 C-4.02 4.69 -2.04 2.38 0 0 Z " fill="#E4821F" transform="translate(45,31)"/>
<path d="M0 0 C0.66 0.33 1.32 0.66 2 1 C1.67 2.65 1.34 4.3 1 6 C-3.875 4.25 -3.875 4.25 -5 2 C-2.625 0.9375 -2.625 0.9375 0 0 Z " fill="#CC8033" transform="translate(79,148)"/>
<path d="M0 0 C0.66 0.33 1.32 0.66 2 1 C2 3.97 2 6.94 2 10 C1.01 10.495 1.01 10.495 0 11 C-0.19406478 9.35492782 -0.38007935 7.70890406 -0.5625 6.0625 C-0.66691406 5.14597656 -0.77132813 4.22945313 -0.87890625 3.28515625 C-0.91886719 2.53105469 -0.95882813 1.77695313 -1 1 C-0.67 0.67 -0.34 0.34 0 0 Z " fill="#B99054" transform="translate(21,103)"/>
<path d="M0 0 C0 3.90838866 -1.50567876 5.11594107 -4 8 C-4 6.02 -4 4.04 -4 2 C-2.68 1.34 -1.36 0.68 0 0 Z " fill="#E1822A" transform="translate(146,82)"/>
<path d="M0 0 C-2.97 1.32 -5.94 2.64 -9 4 C-8.67 2.68 -8.34 1.36 -8 0 C-4.71303767 -0.79953138 -3.28976808 -1.09658936 0 0 Z " fill="#E08431" transform="translate(91,137)"/>
<path d="M0 0 C0.33 0.66 0.66 1.32 1 2 C-0.75 4.0625 -0.75 4.0625 -3 6 C-4.32 5.67 -5.64 5.34 -7 5 C-4.69 3.35 -2.38 1.7 0 0 Z " fill="#DB8831" transform="translate(107,131)"/>
<path d="M0 0 C0.66 0.33 1.32 0.66 2 1 C-0.97 3.475 -0.97 3.475 -4 6 C-4 5.01 -4 4.02 -4 3 C-4.66 3 -5.32 3 -6 3 C-6 2.34 -6 1.68 -6 1 C-4.7934375 1.0309375 -4.7934375 1.0309375 -3.5625 1.0625 C-1.06645115 1.29633621 -1.06645115 1.29633621 0 0 Z " fill="#E58429" transform="translate(148,129)"/>
<path d="M0 0 C0.66 0.33 1.32 0.66 2 1 C1.01 1.33 0.02 1.66 -1 2 C-1.73323796 4.01508358 -1.73323796 4.01508358 -2 6 C-3.32 5.34 -4.64 4.68 -6 4 C-3.94766315 1.7522025 -2.99332739 0.9977758 0 0 Z " fill="#E88621" transform="translate(68,15)"/>
<path d="M0 0 C0 0.66 0 1.32 0 2 C-0.66 2 -1.32 2 -2 2 C-2.33 2.99 -2.66 3.98 -3 5 C-4.65 4.67 -6.3 4.34 -8 4 C-2.7826087 0 -2.7826087 0 0 0 Z " fill="#E58326" transform="translate(94,141)"/>
<path d="M0 0 C-3.18762365 2.12508244 -5.26512223 2.5020163 -9 3 C-9 2.34 -9 1.68 -9 1 C-6.04335481 -0.4783226 -3.25770263 -0.06032783 0 0 Z " fill="#DE832C" transform="translate(71,128)"/>
<path d="" fill="#000000" transform="translate(0,0)"/>
<path d="" fill="#000000" transform="translate(0,0)"/>
<path d="" fill="#000000" transform="translate(0,0)"/>
<path d="" fill="#000000" transform="translate(0,0)"/>
<path d="" fill="#000000" transform="translate(0,0)"/>
<path d="" fill="#000000" transform="translate(0,0)"/>
<path d="" fill="#000000" transform="translate(0,0)"/>
<path d="" fill="#000000" transform="translate(0,0)"/>
<path d="" fill="#000000" transform="translate(0,0)"/>
<path d="" fill="#000000" transform="translate(0,0)"/>
<path d="" fill="#000000" transform="translate(0,0)"/>
<path d="" fill="#000000" transform="translate(0,0)"/>
<path d="" fill="#000000" transform="translate(0,0)"/>
<path d="" fill="#000000" transform="translate(0,0)"/>
<path d="" fill="#000000" transform="translate(0,0)"/>
<path d="" fill="#000000" transform="translate(0,0)"/>
<path d="" fill="#000000" transform="translate(0,0)"/>
<path d="" fill="#000000" transform="translate(0,0)"/>
<path d="" fill="#000000" transform="translate(0,0)"/>
<path d="" fill="#000000" transform="translate(0,0)"/>
<path d="" fill="#000000" transform="translate(0,0)"/>
<path d="" fill="#000000" transform="translate(0,0)"/>
<path d="" fill="#000000" transform="translate(0,0)"/>
<path d="" fill="#000000" transform="translate(0,0)"/>
<path d="" fill="#000000" transform="translate(0,0)"/>
<path d="" fill="#000000" transform="translate(0,0)"/>
<path d="" fill="#000000" transform="translate(0,0)"/>
<path d="" fill="#000000" transform="translate(0,0)"/>
<path d="" fill="#000000" transform="translate(0,0)"/>
<path d="" fill="#000000" transform="translate(0,0)"/>
<path d="" fill="#000000" transform="translate(0,0)"/>
<path d="" fill="#000000" transform="translate(0,0)"/>
<path d="" fill="#000000" transform="translate(0,0)"/>
<path d="" fill="#000000" transform="translate(0,0)"/>
<path d="" fill="#000000" transform="translate(0,0)"/>
<path d="" fill="#000000" transform="translate(0,0)"/>
<path d="" fill="#000000" transform="translate(0,0)"/>
<path d="" fill="#000000" transform="translate(0,0)"/>
<path d="" fill="#000000" transform="translate(0,0)"/>
<path d="" fill="#000000" transform="translate(0,0)"/>
</svg>
